<?xml version="1.0" standalone="no"?>
<!DOCTYPE svg PUBLIC "-//W3C//DTD SVG 20010904//EN"
 "http://www.w3.org/TR/2001/REC-SVG-20010904/DTD/svg10.dtd">
<svg version="1.0" xmlns="http://www.w3.org/2000/svg"
 width="103.000000pt" height="81.000000pt" viewBox="0 0 103.000000 81.000000"
 preserveAspectRatio="xMidYMid meet">

<g transform="translate(0.000000,81.000000) scale(0.100000,-0.100000)"
fill="#000000" stroke="none">
<path d="M394 767 c-7 -20 -1 -30 21 -33 19 -3 19 7 1 32 -14 18 -15 18 -22 1z"/>
<path d="M645 731 c-10 -17 12 -21 25 -6 10 12 10 15 -3 15 -9 0 -18 -4 -22
-9z"/>
<path d="M270 702 c0 -28 10 -52 22 -52 6 0 7 7 4 16 -6 15 -4 15 10 3 14 -12
16 -11 13 5 -2 10 -14 25 -26 34 -21 13 -23 13 -23 -6z"/>
<path d="M502 688 c2 -13 9 -23 17 -23 23 0 24 23 1 35 -19 10 -21 9 -18 -12z"/>
<path d="M380 640 c0 -5 9 -10 21 -10 11 0 17 5 14 10 -3 6 -13 10 -21 10 -8
0 -14 -4 -14 -10z"/>
<path d="M508 605 l-11 -25 -25 22 -25 23 23 -32 c23 -32 23 -34 6 -69 l-17
-36 -30 46 c-44 66 -56 68 -20 4 27 -48 40 -98 26 -98 -3 0 -27 11 -53 25 -26
13 -63 27 -82 30 l-35 6 30 -14 c28 -13 29 -14 10 -25 -17 -9 -14 -10 17 -5
25 4 45 0 67 -13 31 -18 32 -20 26 -74 -16 -132 -29 -151 -133 -187 l-67 -22
340 1 c260 0 329 3 293 11 -51 11 -59 25 -31 52 16 16 17 16 30 -1 12 -16 13
-16 13 9 0 15 -4 27 -9 27 -5 0 -11 13 -13 30 -3 20 0 30 9 30 7 0 13 -4 13
-10 0 -5 5 -10 10 -10 21 0 9 22 -18 32 -28 11 -28 12 -14 40 17 35 6 51 -29
46 -21 -3 -24 -9 -25 -43 0 -36 -3 -40 -27 -43 -34 -4 -36 -22 -3 -22 26 0 32
-12 35 -62 0 -19 -4 -28 -14 -28 -8 0 -15 -7 -15 -15 0 -12 -13 -15 -62 -14
-35 1 -76 4 -92 8 l-28 6 21 19 c15 14 30 17 55 13 19 -3 38 -1 45 6 8 8 11 8
11 -1 0 -7 5 -12 10 -12 13 0 13 27 0 35 -6 4 -17 1 -25 -5 -12 -10 -15 -9
-15 3 0 8 -7 17 -15 21 -23 9 -18 22 18 45 39 25 33 27 -19 5 -38 -16 -39 -16
-21 3 9 11 17 27 17 37 0 9 5 14 10 11 10 -6 14 17 5 27 -3 3 -22 0 -43 -7
-39 -14 -53 -44 -32 -70 13 -16 -3 -55 -22 -55 -6 0 -8 -3 -5 -6 4 -4 13 -1
22 6 12 10 15 9 15 -5 0 -26 -29 -55 -48 -48 -11 5 -14 2 -9 -10 10 -27 -16
-20 -46 11 -28 30 -52 119 -41 156 16 58 31 81 73 107 50 32 45 40 -6 9 -18
-11 -33 -16 -33 -11 0 13 81 81 96 81 7 0 16 4 19 10 10 16 -46 -9 -82 -36
-32 -24 -33 -24 -33 -4 0 11 7 36 14 55 17 40 12 48 -6 10z"/>
<path d="M751 591 c-8 -6 -9 -11 -3 -15 6 -3 14 -1 17 5 9 14 2 20 -14 10z"/>
<path d="M241 544 c0 -16 3 -23 6 -15 5 11 7 11 14 0 7 -11 9 -11 9 2 0 9 -7
22 -15 29 -13 11 -15 8 -14 -16z"/>
<path d="M598 523 c7 -3 16 -2 19 1 4 3 -2 6 -13 5 -11 0 -14 -3 -6 -6z"/>
<path d="M710 510 c0 -5 5 -10 11 -10 5 0 7 5 4 10 -3 6 -8 10 -11 10 -2 0 -4
-4 -4 -10z"/>
<path d="M300 430 c0 -5 5 -10 10 -10 6 0 10 5 10 10 0 6 -4 10 -10 10 -5 0
-10 -4 -10 -10z"/>
<path d="M34 96 c-3 -8 -4 -29 -2 -48 3 -29 7 -33 36 -36 24 -2 32 1 32 12 0
11 -9 16 -30 16 -36 0 -43 29 -7 31 21 1 21 1 -3 9 -25 7 -24 9 20 23 8 3 2 6
-13 6 -15 1 -30 -5 -33 -13z"/>
<path d="M207 103 c-4 -3 -2 -12 4 -20 6 -7 9 -21 6 -32 -2 -10 -1 -25 4 -32
7 -12 9 -12 9 0 0 8 10 25 21 37 12 13 19 30 16 38 -6 16 -48 22 -60 9z m43
-27 c0 -8 -4 -18 -10 -21 -5 -3 -10 3 -10 14 0 12 5 21 10 21 6 0 10 -6 10
-14z"/>
<path d="M291 85 c-1 -16 -4 -41 -7 -55 -5 -23 -4 -24 9 -8 18 23 54 23 60 1
3 -10 5 0 6 22 0 22 -4 47 -9 55 -8 12 -10 11 -10 -7 0 -16 -6 -23 -19 -23
-12 0 -21 8 -24 23 -3 17 -5 16 -6 -8z"/>
<path d="M386 87 c-20 -30 -10 -66 20 -73 47 -12 73 45 38 80 -22 22 -41 20
-58 -7z m54 -2 c17 -20 5 -45 -20 -45 -23 0 -35 22 -26 45 7 19 30 19 46 0z"/>
<path d="M488 103 c-2 -5 -1 -28 3 -53 3 -25 7 -34 7 -21 l2 24 25 -23 c27
-25 32 -21 14 11 -7 14 -7 24 0 33 7 9 7 16 -1 24 -13 13 -45 16 -50 5z m32
-28 c0 -8 -4 -15 -10 -15 -5 0 -10 7 -10 15 0 8 5 15 10 15 6 0 10 -7 10 -15z"/>
<path d="M565 60 c0 -27 3 -50 8 -50 4 0 7 23 7 50 0 28 -3 50 -7 50 -5 0 -8
-22 -8 -50z"/>
<path d="M632 98 c-16 -20 -34 -94 -20 -80 16 16 65 15 71 0 3 -8 6 -6 6 5 1
24 -26 87 -37 87 -5 0 -14 -6 -20 -12z m36 -36 c2 -7 -6 -12 -17 -12 -21 0
-27 11 -14 24 9 9 26 2 31 -12z"/>
<path d="M180 75 c0 -36 -28 -44 -51 -14 -14 18 -19 20 -19 8 0 -9 8 -27 18
-39 16 -19 22 -21 40 -11 16 9 22 21 22 46 0 19 -2 35 -5 35 -3 0 -5 -11 -5
-25z"/>
</g>
</svg>
